<svg xmlns="http://www.w3.org/2000/svg" width="315" height="70" viewBox="0 0 315 70" fill="none"><path d="M15.8653 39.6C17.3053 39.6 18.6453 39.32 19.8853 38.76C21.1653 38.2 22.2453 37.38 23.1253 36.3L27.2053 40.38C25.8053 41.98 24.0653 43.26 21.9853 44.22C19.9053 45.14 17.7253 45.6 15.4453 45.6C13.3253 45.6 11.3253 45.2 9.44531 44.4C7.60531 43.6 6.00531 42.5 4.64531 41.1C3.28531 39.7 2.20531 38.04 1.40531 36.12C0.645313 34.2 0.265313 32.16 0.265313 30C0.265313 27.84 0.645313 25.82 1.40531 23.94C2.20531 22.02 3.28531 20.38 4.64531 19.02C6.00531 17.62 7.60531 16.52 9.44531 15.72C11.3253 14.92 13.3253 14.52 15.4453 14.52C17.7653 14.52 19.9653 14.96 22.0453 15.84C24.1653 16.72 25.9653 17.96 27.4453 19.56L23.2453 23.94C22.2053 22.78 21.0453 21.9 19.7653 21.3C18.4853 20.7 17.1253 20.4 15.6853 20.4C13.2853 20.4 11.2453 21.34 9.56531 23.22C7.88531 25.06 7.04531 27.32 7.04531 30C7.04531 32.72 7.88531 35 9.56531 36.84C11.2453 38.68 13.3453 39.6 15.8653 39.6ZM39.6516 14.94V32.82C39.6516 34.98 40.2516 36.72 41.4516 38.04C42.6516 39.36 44.2516 40.02 46.2516 40.02C47.6116 40.02 48.8516 39.72 49.9716 39.12C51.0916 38.48 52.0516 37.54 52.8516 36.3V14.94H59.6316V45H52.8516V40.02C51.7316 41.78 50.3516 43.14 48.7116 44.1C47.1116 45.02 45.2916 45.48 43.2516 45.48C40.2116 45.48 37.7116 44.48 35.7516 42.48C33.8316 40.48 32.8716 37.9 32.8716 34.74V14.94H39.6516ZM74.7534 0.959998V45H67.9734V2.1L74.7534 0.959998ZM86.8106 37.08V20.34H80.7506V14.94H86.8106V6.66L93.5906 5.22V14.94H101.991V20.34H93.5906V35.58C93.5906 37.06 93.9106 38.12 94.5506 38.76C95.1906 39.36 96.2706 39.66 97.7906 39.66C98.4706 39.66 99.0906 39.62 99.6506 39.54C100.251 39.42 100.991 39.22 101.871 38.94V44.64C100.991 44.92 100.011 45.12 98.9306 45.24C97.8906 45.4 96.9306 45.48 96.0506 45.48C93.0506 45.48 90.7506 44.78 89.1506 43.38C87.5906 41.94 86.8106 39.84 86.8106 37.08ZM114.534 14.94V32.82C114.534 34.98 115.134 36.72 116.334 38.04C117.534 39.36 119.134 40.02 121.134 40.02C122.494 40.02 123.734 39.72 124.854 39.12C125.974 38.48 126.934 37.54 127.734 36.3V14.94H134.514V45H127.734V40.02C126.614 41.78 125.234 43.14 123.594 44.1C121.994 45.02 120.174 45.48 118.134 45.48C115.094 45.48 112.594 44.48 110.634 42.48C108.714 40.48 107.754 37.9 107.754 34.74V14.94H114.534ZM142.856 45V14.94H149.636V21.48C150.436 19.2 151.536 17.46 152.936 16.26C154.376 15.02 156.036 14.4 157.916 14.4C158.476 14.44 158.976 14.5 159.416 14.58C159.856 14.66 160.336 14.8 160.856 15V20.94C160.336 20.7 159.736 20.52 159.056 20.4C158.416 20.28 157.776 20.22 157.136 20.22C155.536 20.22 154.076 20.66 152.756 21.54C151.436 22.42 150.396 23.64 149.636 25.2V45H142.856ZM190.806 41.16C188.966 42.68 187.086 43.8 185.166 44.52C183.286 45.24 181.186 45.6 178.866 45.6C176.746 45.6 174.746 45.2 172.866 44.4C170.986 43.6 169.366 42.5 168.006 41.1C166.646 39.7 165.566 38.04 164.766 36.12C163.966 34.2 163.566 32.16 163.566 30C163.566 27.8 163.926 25.76 164.646 23.88C165.406 21.96 166.426 20.32 167.706 18.96C169.026 17.56 170.586 16.46 172.386 15.66C174.186 14.86 176.126 14.46 178.206 14.46C180.246 14.46 182.126 14.86 183.846 15.66C185.606 16.42 187.106 17.48 188.346 18.84C189.626 20.2 190.626 21.84 191.346 23.76C192.066 25.64 192.426 27.7 192.426 29.94V31.62H170.226C170.546 33.98 171.546 35.94 173.226 37.5C174.946 39.06 176.946 39.84 179.226 39.84C180.626 39.84 181.946 39.6 183.186 39.12C184.466 38.6 185.526 37.9 186.366 37.02L190.806 41.16ZM178.146 19.98C176.146 19.98 174.446 20.66 173.046 22.02C171.646 23.38 170.746 25.2 170.346 27.48H186.006C185.606 25.28 184.686 23.48 183.246 22.08C181.846 20.68 180.146 19.98 178.146 19.98Z" fill="#5330C9"></path><path d="M201.234 46.2305C200.375 44.375 199.232 42.9883 197.807 42.0703L202.143 37.9395C203.412 38.8965 204.545 40.2734 205.541 42.0703L201.234 46.2305ZM228.48 35.6836C228.969 36.0156 229.213 36.4062 229.213 36.8555C229.213 37.4609 228.588 38.4961 227.338 39.9609C223.998 43.8281 220.697 45.7617 217.436 45.7617C215.443 45.7617 213.803 44.9707 212.514 43.3887C211.225 41.8066 210.58 39.7852 210.58 37.3242C210.58 32.8711 212.26 28.3691 215.619 23.8184C218.998 19.248 222.338 16.9629 225.639 16.9629C228.021 16.9629 229.213 18.2422 229.213 20.8008C229.213 23.6719 227.816 26.4746 225.023 29.209C222.25 31.9434 218.861 33.8477 214.857 34.9219C215.248 39.6289 217.104 41.9824 220.424 41.9824C223.705 41.9824 226.391 39.8828 228.48 35.6836ZM214.975 31.3477C215.541 31.543 216.059 31.6406 216.527 31.6406C218.949 31.6406 221.068 30.8984 222.885 29.4141C224.701 27.9297 225.609 26.1914 225.609 24.1992C225.609 21.9141 224.447 20.7715 222.123 20.7715C220.443 20.7715 218.92 21.7773 217.553 23.7891C216.205 25.7812 215.346 28.3008 214.975 31.3477ZM251.215 33.3691C249.008 37.002 246.576 39.9805 243.92 42.3047C241.283 44.6094 238.988 45.7617 237.035 45.7617C234.359 45.7617 233.021 43.6035 233.021 39.2871C233.021 33.3496 234.965 28.2129 238.852 23.877C242.758 19.5215 247.377 17.3438 252.709 17.3438C254.74 17.3438 256.469 17.5977 257.895 18.1055C257.797 18.457 257.738 18.6719 257.719 18.75L257.367 20.3027C257.133 21.377 257.006 22.002 256.986 22.1777L255.111 35.127L254.848 37.002C254.594 38.8574 254.467 40.0977 254.467 40.7227C254.467 41.5625 254.711 41.9824 255.199 41.9824C256.84 41.9824 258.52 40.1465 260.238 36.4746C260.766 36.7871 261.029 37.0996 261.029 37.4121C261.029 38.0957 260.189 39.4727 258.51 41.543C256.225 44.3555 254.105 45.7617 252.152 45.7617C250.727 45.7617 250.014 44.8047 250.014 42.8906C250.014 42.3047 250.082 41.4941 250.219 40.459L250.512 38.1152L250.893 35.5371L251.215 33.3691ZM252.885 21.7383C251.107 20.7422 249.311 20.2441 247.494 20.2441C244.76 20.2441 242.465 21.9141 240.609 25.2539C238.754 28.5938 237.826 32.7344 237.826 37.6758C237.826 40.2148 238.578 41.4844 240.082 41.4844C241.82 41.4844 243.92 40.1562 246.381 37.5C249.701 33.9258 251.713 29.7266 252.416 24.9023L252.885 21.7383ZM261.967 44.1797L266.01 40.8691C267.533 42.4902 269.447 43.3008 271.752 43.3008C274.564 43.3008 275.971 41.9434 275.971 39.2285C275.971 37.7246 274.682 35.625 272.104 32.9297L270.434 31.2012C267.992 28.6426 266.771 26.5723 266.771 24.9902C266.771 22.7246 267.748 20.8203 269.701 19.2773C271.674 17.7344 274.096 16.9629 276.967 16.9629C278.529 16.9629 280.238 17.2559 282.094 17.8418L278.578 21.0938C277.094 19.9805 275.443 19.4238 273.627 19.4238C271.498 19.4238 270.434 20.3125 270.434 22.0898C270.434 23.3594 271.615 25.2246 273.979 27.6855L275.795 29.6191C278.49 32.4316 279.838 34.6973 279.838 36.416C279.838 38.877 278.656 41.0547 276.293 42.9492C273.93 44.8242 271.205 45.7617 268.119 45.7617C265.932 45.7617 263.881 45.2344 261.967 44.1797ZM306.615 33.3398C304.643 36.9336 302.572 39.9023 300.404 42.2461C298.256 44.5898 296.498 45.7617 295.131 45.7617C293.256 45.7617 292.221 43.7891 292.025 39.8438L291.82 35.7715L291.439 27.4805L291.352 25.1074C291.176 21.9629 290.6 20.3906 289.623 20.3906C288.1 20.3906 286.615 21.8359 285.17 24.7266C284.662 24.375 284.408 23.9941 284.408 23.584C284.408 22.5293 285.355 21.1621 287.25 19.4824C289.145 17.8027 290.688 16.9629 291.879 16.9629C293.109 16.9629 293.979 17.5195 294.486 18.6328C294.994 19.7266 295.326 21.7578 295.482 24.7266L296.01 34.9805C296.205 38.8867 296.83 40.8398 297.885 40.8398C299.467 40.8398 301.43 39.0332 303.773 35.4199C306.117 31.7871 307.621 28.2227 308.285 24.7266L309.428 18.75L314.643 16.9336C313.979 18.6523 313.295 21.25 312.592 24.7266L308.666 44.3848C307.123 52.0801 304.74 57.7637 301.518 61.4355C296.693 66.9043 291.107 69.6387 284.76 69.6387C283.432 69.6387 281.938 69.3457 280.277 68.7598L283.881 64.8047C285.717 65.625 287.631 66.0352 289.623 66.0352C293.686 66.0352 296.732 64.7168 298.764 62.0801C300.795 59.4434 302.494 54.6094 303.861 47.5781L306.615 33.3398Z" fill="#2F2E41"></path></svg>